<svg width="90" height="89" viewBox="0 0 90 89" fill="none" xmlns="http://www.w3.org/2000/svg">
<path d="M19.42 84.126L18.076 88.092L16.751 84.126H16.564L15.233 88.092L13.892 84.126H13.538L15.056 88.476H15.415L16.109 86.432L16.654 84.732L17.199 86.447L17.888 88.479H18.247L19.777 84.129L19.42 84.126Z" fill="white"/>
<path d="M23.9091 84.126V88.465H26.9761V88.141H24.2371V86.432H26.7791V86.132H24.2371V84.448H26.9011V84.13L23.9091 84.126Z" fill="white"/>
<path d="M36.2099 84.126H34.7419V88.465H36.2099C36.4988 88.4712 36.7859 88.4197 37.0546 88.3134C37.3232 88.2072 37.5679 88.0484 37.7744 87.8463C37.9808 87.6442 38.1449 87.403 38.2569 87.1367C38.3688 86.8704 38.4265 86.5844 38.4265 86.2955C38.4265 86.0066 38.3688 85.7206 38.2569 85.4543C38.1449 85.188 37.9808 84.9468 37.7744 84.7447C37.5679 84.5426 37.3232 84.3838 37.0546 84.2776C36.7859 84.1713 36.4988 84.1198 36.2099 84.126ZM36.2099 84.444C36.7006 84.444 37.1711 84.6389 37.5181 84.9858C37.865 85.3328 38.0599 85.8033 38.0599 86.294C38.0599 86.7846 37.865 87.2552 37.5181 87.6021C37.1711 87.9491 36.7006 88.144 36.2099 88.144H35.0759V84.444H36.2099Z" fill="white"/>
<path d="M42.632 84.444H45.296V84.126H42.303V88.465H45.373V88.141H42.635V86.432H45.173V86.132H42.631L42.632 84.444Z" fill="white"/>
<path d="M49.069 84.125V88.464H51.843V88.146H49.404V84.125H49.069Z" fill="white"/>
<path d="M55.26 84.126H54.931V88.464H55.26V84.126Z" fill="white"/>
<path d="M62.1149 84.125L60.5089 88.091L58.909 84.125H58.549L60.3329 88.475H60.6929L62.4769 84.125H62.1149Z" fill="white"/>
<path d="M66.513 84.444H69.177V84.126H66.189V88.465H69.256V88.141H66.518V86.432H69.057V86.132H66.518L66.513 84.444Z" fill="white"/>
<path d="M74.9819 86.803C75.1641 86.8208 75.3479 86.7995 75.5211 86.7403C75.6942 86.6811 75.8527 86.5856 75.9858 86.46C76.1189 86.3345 76.2236 86.1819 76.2928 86.0125C76.362 85.8431 76.3941 85.6608 76.3869 85.478C76.3887 85.2937 76.3524 85.111 76.2805 84.9414C76.2085 84.7717 76.1024 84.6187 75.9687 84.4919C75.835 84.365 75.6766 84.2671 75.5034 84.2041C75.3302 84.1412 75.1459 84.1146 74.9619 84.126H73.054V88.465H73.3889V86.822H74.573L76.073 88.465H76.513L74.9819 86.803ZM73.3889 84.436H74.9619C75.1011 84.4277 75.2404 84.4485 75.371 84.4972C75.5015 84.5459 75.6205 84.6213 75.7202 84.7187C75.8199 84.8161 75.8982 84.9332 75.95 85.0626C76.0018 85.1919 76.0259 85.3307 76.021 85.47C76.0321 85.6145 76.0108 85.7598 75.9586 85.895C75.9063 86.0302 75.8244 86.1521 75.7189 86.2515C75.6134 86.351 75.487 86.4255 75.3489 86.4698C75.2108 86.514 75.0646 86.5267 74.9209 86.507H73.386L73.3889 84.436Z" fill="white"/>
<path d="M89.9429 78.231H0.137939V78.529H89.9429V78.231Z" fill="white"/>
<path d="M10.9 57.418L7.623 68.778L4.164 57.418H0L5.3 72.604H9.644L11.206 68.133L12.552 63.082L13.9 68.133L15.46 72.604H19.808L25.074 57.418H20.942L17.482 68.778L14.176 57.418H10.9Z" fill="white"/>
<path d="M46.39 66.326C46.972 60.112 43.817 56.988 38.765 56.988C33.865 56.988 30.745 60.295 30.745 64.888C30.745 69.725 33.836 72.939 39.045 72.939C41.4434 72.9932 43.7694 72.1153 45.534 70.49L43.146 68.132C42.0079 69.0639 40.5768 69.563 39.106 69.541C36.471 69.541 34.849 68.193 34.606 66.325L46.39 66.326ZM34.663 63.234C34.92 62.332 35.4809 61.5467 36.2507 61.011C37.0206 60.4754 37.952 60.2224 38.887 60.295C41.031 60.295 42.562 61.274 42.807 63.234H34.663Z" fill="white"/>
<path d="M59.7739 60.571C60.9359 60.5885 62.0443 61.0623 62.8598 61.8902C63.6753 62.718 64.1324 63.8335 64.1324 64.9955C64.1324 66.1576 63.6753 67.273 62.8598 68.1009C62.0443 68.9287 60.9359 69.4026 59.7739 69.42C59.1962 69.4266 58.6231 69.3152 58.09 69.0925C57.5568 68.8697 57.0748 68.5405 56.6734 68.1248C56.272 67.7092 55.9597 67.216 55.7557 66.6754C55.5517 66.1348 55.4602 65.5582 55.487 64.981C55.4528 64.4035 55.5393 63.8251 55.741 63.2829C55.9427 62.7406 56.2552 62.2463 56.6586 61.8315C57.0619 61.4167 57.5472 61.0905 58.0836 60.8736C58.62 60.6568 59.1957 60.5541 59.7739 60.572M64.3969 51.142V59.501C63.5079 57.939 61.0279 57.083 59.4359 57.083C55.0289 57.083 51.752 59.777 51.752 64.983C51.752 69.942 55.09 72.883 59.53 72.883C60.4814 72.9369 61.4305 72.7423 62.284 72.3183C63.1375 71.8944 63.866 71.2557 64.3979 70.465L64.6429 72.547H68.1329V51.147L64.3969 51.142Z" fill="white"/>
<path d="M89.874 66.326C90.455 60.112 87.3 56.988 82.249 56.988C77.349 56.988 74.228 60.295 74.228 64.888C74.228 69.725 77.32 72.939 82.528 72.939C84.9265 72.9933 87.2525 72.1154 89.017 70.49L86.629 68.132C85.491 69.0639 84.0598 69.5631 82.589 69.541C79.956 69.541 78.332 68.193 78.089 66.325L89.874 66.326ZM78.147 63.234C78.404 62.332 78.9649 61.5467 79.7348 61.011C80.5046 60.4754 81.436 60.2224 82.371 60.295C84.515 60.295 86.046 61.274 86.291 63.234H78.147Z" fill="white"/>
<path d="M12.544 41.566C14.553 41.566 16.718 40.253 18.344 38.939C21.9604 35.6814 25.3912 32.2233 28.62 28.581C30.243 26.803 31.867 24.949 33.488 23.249C35.035 21.626 36.503 20.157 38.126 18.689C37.507 21.008 36.889 23.404 36.503 25.724C35.803 29.588 35.344 35.848 39.13 37.858C39.8443 38.321 40.6787 38.5644 41.53 38.558C46.09 38.558 51.501 32.606 56.524 26.115C59.075 22.868 61.549 19.39 63.79 16.377C65.4085 14.1592 67.1912 12.066 69.123 10.115C69.0362 10.2837 68.9835 10.4679 68.968 10.657V11.121C69.008 11.2113 69.0729 11.2883 69.1551 11.3432C69.2372 11.3981 69.3332 11.4285 69.432 11.431C69.587 11.431 69.664 11.352 69.74 11.352C69.7432 11.3121 69.7606 11.2746 69.789 11.2464C69.8174 11.2181 69.855 11.201 69.895 11.198C69.9535 11.0393 70.0619 10.9039 70.204 10.812C70.2634 10.6734 70.3415 10.5436 70.436 10.426C70.436 10.349 70.514 10.271 70.591 10.194C71.3102 9.31015 72.172 8.55272 73.141 7.95301C73.528 7.64301 75.305 6.56101 77.005 5.40301C77.777 4.86201 78.628 4.24301 79.2459 3.78001C79.5204 3.56557 79.7791 3.33163 80.02 3.08001C80.0959 3.00301 80.173 2.92501 80.252 2.84801C80.333 2.76217 80.3869 2.65434 80.407 2.53801C80.4829 1.76501 79.707 1.30101 79.015 0.99401C78.3758 0.723652 77.6948 0.565665 77.002 0.52701C76.716 0.510953 76.4293 0.536896 76.151 0.60401C74.529 0.99201 71.824 3.46501 68.732 6.71101C65.562 10.033 61.853 14.283 58.222 18.534C50.722 27.034 43.614 35.151 40.985 35.151C40.599 35.151 40.367 34.92 40.212 34.451C40.1154 33.8893 40.0635 33.3209 40.057 32.751C40.1031 31.5839 40.2324 30.4217 40.444 29.273C41.526 22.935 43.69 16.673 45.237 10.415L45.314 10.26L45.237 10.183C44.4039 9.59102 43.3981 9.29176 42.377 9.33201C42.007 9.33042 41.6499 9.46824 41.377 9.71801C41.299 9.87301 41.222 10.028 41.144 10.183C41.0499 10.3007 40.9722 10.4305 40.913 10.569C40.5221 11.3349 40.0558 12.0598 39.521 12.733C35.502 17.833 16.644 37.62 13.321 37.542V37.232C14.283 34.113 15.687 31.1479 17.49 28.427C18.418 26.804 20.35 23.79 22.127 20.853C23.905 17.84 25.527 14.824 25.76 13.201C25.915 12.428 25.219 12.043 24.601 11.811C23.9757 11.6117 23.3242 11.5072 22.668 11.501C22.4769 11.4964 22.2874 11.5358 22.114 11.6161C21.9406 11.6963 21.788 11.8154 21.668 11.964C21.6083 12.1029 21.5306 12.2334 21.437 12.352C21.359 12.506 21.282 12.66 21.204 12.815C19.814 15.752 17.185 20.544 14.79 25.182C12.317 29.819 10.077 34.382 9.68996 36.93C9.30196 39.171 9.76595 41.566 12.549 41.566" fill="white"/>
</svg>
